<svg width="149" height="48" viewBox="0 0 149 48" fill="none" xmlns="http://www.w3.org/2000/svg">
<path d="M47.4979 0H32.1403C31.2117 0 30.459 0.752758 30.459 1.68133V46.3187C30.459 47.2472 31.2117 48 32.1403 48H47.4979C48.4264 48 49.1792 47.2472 49.1792 46.3187V1.68133C49.1792 0.752758 48.4264 0 47.4979 0Z" fill="white"/>
<path d="M17.0389 0H1.68133C0.752758 0 0 0.752758 0 1.68133V46.3187C0 47.2472 0.752758 48 1.68133 48H17.0389C17.9674 48 18.7202 47.2472 18.7202 46.3187V1.68133C18.7202 0.752758 17.9674 0 17.0389 0Z" fill="white"/>
<path d="M146.788 0H131.431C130.502 0 129.75 0.752758 129.75 1.68133V46.3187C129.75 47.2472 130.502 48 131.431 48H146.788C147.717 48 148.47 47.2472 148.47 46.3187V1.68133C148.47 0.752758 147.717 0 146.788 0Z" fill="white"/>
<path d="M115.991 0.0410156H63.3781C62.2708 0.0410156 61.3789 0.932942 61.3789 2.04016V45.9496C61.3789 47.0568 62.2708 47.9487 63.3781 47.9487H115.991C117.099 47.9487 117.991 47.0568 117.991 45.9496V2.04016C117.991 0.932942 117.099 0.0410156 115.991 0.0410156ZM109.071 37.5634C109.071 38.4964 108.313 39.2448 107.39 39.2448H86.1273C85.1944 39.2448 84.446 38.4861 84.446 37.5634V6.84836C84.446 5.91543 85.2046 5.16703 86.1273 5.16703H107.39C108.323 5.16703 109.071 5.92568 109.071 6.84836V37.5634Z" fill="white"/>
</svg>
